<mxfile host="app.diagrams.net" agent="Mozilla/5.0 (Windows NT 10.0; Win64; x64) AppleWebKit/537.36 (KHTML, like Gecko) Chrome/131.0.0.0 Safari/537.36" version="26.0.6">
  <diagram name="Page-1" id="e7e014a7-5840-1c2e-5031-d8a46d1fe8dd">
    <mxGraphModel dx="2100" dy="1114" grid="1" gridSize="10" guides="1" tooltips="1" connect="1" arrows="1" fold="1" page="1" pageScale="1" pageWidth="1169" pageHeight="826" background="none" math="0" shadow="0">
      <root>
        <mxCell id="0" />
        <mxCell id="1" parent="0" />
        <mxCell id="3" value="protectPrincess" style="swimlane;whiteSpace=wrap" parent="1" vertex="1">
          <mxGeometry x="680" y="150" width="770" height="970" as="geometry" />
        </mxCell>
        <mxCell id="_Sj6H3lR2v7R7_RWuAPX-70" value="" style="ellipse;shape=startState;fillColor=#000000;strokeColor=#000000;" parent="3" vertex="1">
          <mxGeometry x="284" y="60" width="30" height="30" as="geometry" />
        </mxCell>
        <mxCell id="_Sj6H3lR2v7R7_RWuAPX-342" value="" style="edgeStyle=elbowEdgeStyle;elbow=horizontal;verticalAlign=bottom;endArrow=open;endSize=8;endFill=1;rounded=0;exitX=0.5;exitY=1;exitDx=0;exitDy=0;entryX=0.5;entryY=0;entryDx=0;entryDy=0;" parent="3" source="-Pbv0AkEXwjADhWEen1N-27" target="-Pbv0AkEXwjADhWEen1N-55" edge="1">
          <mxGeometry x="-75" y="-108" as="geometry">
            <mxPoint x="400" y="380" as="targetPoint" />
            <mxPoint x="360" y="220" as="sourcePoint" />
            <Array as="points">
              <mxPoint x="301" y="230" />
            </Array>
          </mxGeometry>
        </mxCell>
        <mxCell id="_Sj6H3lR2v7R7_RWuAPX-353" value="" style="edgeStyle=elbowEdgeStyle;elbow=vertical;align=left;verticalAlign=bottom;endArrow=open;endSize=8;endFill=1;rounded=0;exitX=0.5;exitY=1;exitDx=0;exitDy=0;entryX=0.5;entryY=0;entryDx=0;entryDy=0;" parent="3" target="-Pbv0AkEXwjADhWEen1N-31" edge="1">
          <mxGeometry x="-1" relative="1" as="geometry">
            <mxPoint x="319" y="410" as="targetPoint" />
            <Array as="points">
              <mxPoint x="299" y="460" />
            </Array>
            <mxPoint x="301" y="420" as="sourcePoint" />
          </mxGeometry>
        </mxCell>
        <mxCell id="_Sj6H3lR2v7R7_RWuAPX-354" value="&lt;div&gt;false&lt;/div&gt;" style="edgeLabel;html=1;align=center;verticalAlign=middle;resizable=0;points=[];" parent="_Sj6H3lR2v7R7_RWuAPX-353" vertex="1" connectable="0">
          <mxGeometry x="0.2669" relative="1" as="geometry">
            <mxPoint y="-13" as="offset" />
          </mxGeometry>
        </mxCell>
        <mxCell id="-Pbv0AkEXwjADhWEen1N-27" value="step towards princess" style="rounded=1;fontSize=11;" vertex="1" parent="3">
          <mxGeometry x="246" y="150" width="110" height="50" as="geometry" />
        </mxCell>
        <mxCell id="-Pbv0AkEXwjADhWEen1N-31" value="princess reached" style="rhombus;fontSize=9;" vertex="1" parent="3">
          <mxGeometry x="261" y="490" width="80" height="40" as="geometry" />
        </mxCell>
        <mxCell id="-Pbv0AkEXwjADhWEen1N-35" value="" style="edgeStyle=elbowEdgeStyle;elbow=horizontal;align=left;verticalAlign=bottom;endArrow=open;endSize=8;endFill=1;rounded=0;exitX=1;exitY=0.5;exitDx=0;exitDy=0;entryX=0;entryY=0.5;entryDx=0;entryDy=0;" edge="1" parent="3" source="-Pbv0AkEXwjADhWEen1N-31" target="-Pbv0AkEXwjADhWEen1N-37">
          <mxGeometry x="-1" relative="1" as="geometry">
            <mxPoint x="438" y="430" as="targetPoint" />
            <Array as="points" />
            <mxPoint x="532" y="430" as="sourcePoint" />
          </mxGeometry>
        </mxCell>
        <mxCell id="-Pbv0AkEXwjADhWEen1N-36" value="&lt;div&gt;false&lt;/div&gt;" style="edgeLabel;html=1;align=center;verticalAlign=middle;resizable=0;points=[];" vertex="1" connectable="0" parent="-Pbv0AkEXwjADhWEen1N-35">
          <mxGeometry x="0.2669" relative="1" as="geometry">
            <mxPoint x="-6" as="offset" />
          </mxGeometry>
        </mxCell>
        <mxCell id="-Pbv0AkEXwjADhWEen1N-37" value="GB_e reached" style="rhombus;fontSize=9;" vertex="1" parent="3">
          <mxGeometry x="499" y="490" width="80" height="40" as="geometry" />
        </mxCell>
        <mxCell id="-Pbv0AkEXwjADhWEen1N-38" value="" style="edgeStyle=elbowEdgeStyle;elbow=horizontal;align=left;verticalAlign=bottom;endArrow=open;endSize=8;endFill=1;rounded=0;exitX=1;exitY=0.5;exitDx=0;exitDy=0;entryX=1;entryY=0.5;entryDx=0;entryDy=0;" edge="1" parent="3" source="-Pbv0AkEXwjADhWEen1N-37" target="-Pbv0AkEXwjADhWEen1N-27">
          <mxGeometry x="-1" relative="1" as="geometry">
            <mxPoint x="400" y="175" as="targetPoint" />
            <Array as="points">
              <mxPoint x="620" y="350" />
            </Array>
            <mxPoint x="564" y="389.57" as="sourcePoint" />
          </mxGeometry>
        </mxCell>
        <mxCell id="-Pbv0AkEXwjADhWEen1N-39" value="&lt;div&gt;false&lt;/div&gt;" style="edgeLabel;html=1;align=center;verticalAlign=middle;resizable=0;points=[];" vertex="1" connectable="0" parent="-Pbv0AkEXwjADhWEen1N-38">
          <mxGeometry x="0.2669" relative="1" as="geometry">
            <mxPoint x="29" y="275" as="offset" />
          </mxGeometry>
        </mxCell>
        <mxCell id="-Pbv0AkEXwjADhWEen1N-42" value="" style="edgeStyle=elbowEdgeStyle;elbow=vertical;align=left;verticalAlign=bottom;endArrow=open;endSize=8;endFill=1;rounded=0;exitX=0.5;exitY=1;exitDx=0;exitDy=0;entryX=0.5;entryY=0;entryDx=0;entryDy=0;" edge="1" parent="3" source="-Pbv0AkEXwjADhWEen1N-37" target="-Pbv0AkEXwjADhWEen1N-44">
          <mxGeometry x="-1" relative="1" as="geometry">
            <mxPoint x="539" y="580" as="targetPoint" />
            <Array as="points">
              <mxPoint x="539" y="560" />
            </Array>
            <mxPoint x="539" y="470" as="sourcePoint" />
          </mxGeometry>
        </mxCell>
        <mxCell id="-Pbv0AkEXwjADhWEen1N-43" value="&lt;div&gt;true&lt;/div&gt;" style="edgeLabel;html=1;align=center;verticalAlign=middle;resizable=0;points=[];" vertex="1" connectable="0" parent="-Pbv0AkEXwjADhWEen1N-42">
          <mxGeometry x="0.2669" relative="1" as="geometry">
            <mxPoint y="-13" as="offset" />
          </mxGeometry>
        </mxCell>
        <mxCell id="-Pbv0AkEXwjADhWEen1N-44" value="GB_e broken" style="rhombus;fontSize=9;" vertex="1" parent="3">
          <mxGeometry x="499" y="600" width="80" height="40" as="geometry" />
        </mxCell>
        <mxCell id="-Pbv0AkEXwjADhWEen1N-47" value="" style="edgeStyle=elbowEdgeStyle;elbow=horizontal;align=left;verticalAlign=bottom;endArrow=open;endSize=8;endFill=1;rounded=0;exitX=0.5;exitY=1;exitDx=0;exitDy=0;entryX=0.5;entryY=0;entryDx=0;entryDy=0;" edge="1" parent="3" source="-Pbv0AkEXwjADhWEen1N-44" target="-Pbv0AkEXwjADhWEen1N-49">
          <mxGeometry x="-1" relative="1" as="geometry">
            <mxPoint x="539" y="630" as="targetPoint" />
            <Array as="points" />
            <mxPoint x="534" y="600" as="sourcePoint" />
          </mxGeometry>
        </mxCell>
        <mxCell id="-Pbv0AkEXwjADhWEen1N-48" value="&lt;div&gt;false&lt;/div&gt;" style="edgeLabel;html=1;align=center;verticalAlign=middle;resizable=0;points=[];" vertex="1" connectable="0" parent="-Pbv0AkEXwjADhWEen1N-47">
          <mxGeometry x="0.2669" relative="1" as="geometry">
            <mxPoint y="-9" as="offset" />
          </mxGeometry>
        </mxCell>
        <mxCell id="-Pbv0AkEXwjADhWEen1N-49" value="attack gate" style="rounded=1;fontSize=11;" vertex="1" parent="3">
          <mxGeometry x="484" y="750" width="110" height="50" as="geometry" />
        </mxCell>
        <mxCell id="-Pbv0AkEXwjADhWEen1N-50" value="" style="edgeStyle=elbowEdgeStyle;elbow=horizontal;verticalAlign=bottom;endArrow=open;endSize=8;endFill=1;rounded=0;exitX=0;exitY=0.5;exitDx=0;exitDy=0;entryX=0;entryY=0.5;entryDx=0;entryDy=0;" edge="1" parent="3" source="-Pbv0AkEXwjADhWEen1N-49" target="-Pbv0AkEXwjADhWEen1N-44">
          <mxGeometry x="-755" y="-258" as="geometry">
            <mxPoint x="252" y="574" as="targetPoint" />
            <mxPoint x="366" y="490" as="sourcePoint" />
            <Array as="points">
              <mxPoint x="444" y="700" />
            </Array>
          </mxGeometry>
        </mxCell>
        <mxCell id="-Pbv0AkEXwjADhWEen1N-55" value="princess  &#xa;picked up" style="rhombus;fontSize=9;" vertex="1" parent="3">
          <mxGeometry x="261" y="263" width="80" height="40" as="geometry" />
        </mxCell>
        <mxCell id="-Pbv0AkEXwjADhWEen1N-56" value="" style="edgeStyle=elbowEdgeStyle;elbow=horizontal;align=left;verticalAlign=bottom;endArrow=open;endSize=8;exitX=0;exitY=0.5;endFill=1;rounded=0;exitDx=0;exitDy=0;entryX=1;entryY=0.5;entryDx=0;entryDy=0;" edge="1" parent="3" source="-Pbv0AkEXwjADhWEen1N-55" target="-Pbv0AkEXwjADhWEen1N-58">
          <mxGeometry x="-1" relative="1" as="geometry">
            <mxPoint x="279" y="273" as="targetPoint" />
            <Array as="points">
              <mxPoint x="245" y="272" />
            </Array>
            <mxPoint x="29" y="241" as="sourcePoint" />
          </mxGeometry>
        </mxCell>
        <mxCell id="-Pbv0AkEXwjADhWEen1N-57" value="&lt;div&gt;false&lt;/div&gt;" style="edgeLabel;html=1;align=center;verticalAlign=middle;resizable=0;points=[];" vertex="1" connectable="0" parent="-Pbv0AkEXwjADhWEen1N-56">
          <mxGeometry x="0.2669" relative="1" as="geometry">
            <mxPoint x="3" as="offset" />
          </mxGeometry>
        </mxCell>
        <mxCell id="-Pbv0AkEXwjADhWEen1N-58" value="&lt;div align=&quot;center&quot;&gt;&lt;span style=&quot;font-size: 6px;&quot;&gt;&lt;b&gt;pickupPrincess&lt;/b&gt;&lt;/span&gt;&lt;/div&gt;" style="rounded=0;whiteSpace=wrap;html=1;align=center;" vertex="1" parent="3">
          <mxGeometry x="130" y="273" width="50" height="20" as="geometry" />
        </mxCell>
        <mxCell id="-Pbv0AkEXwjADhWEen1N-59" value="" style="edgeStyle=elbowEdgeStyle;elbow=horizontal;align=left;verticalAlign=bottom;endArrow=open;endSize=8;endFill=1;rounded=0;entryX=0.5;entryY=0;entryDx=0;entryDy=0;exitX=0.5;exitY=1;exitDx=0;exitDy=0;" edge="1" parent="3" source="-Pbv0AkEXwjADhWEen1N-55">
          <mxGeometry x="-1" relative="1" as="geometry">
            <mxPoint x="301" y="380" as="targetPoint" />
            <Array as="points">
              <mxPoint x="301" y="350" />
            </Array>
            <mxPoint x="370" y="310" as="sourcePoint" />
          </mxGeometry>
        </mxCell>
        <mxCell id="-Pbv0AkEXwjADhWEen1N-60" value="&lt;div&gt;true&lt;/div&gt;" style="edgeLabel;html=1;align=center;verticalAlign=middle;resizable=0;points=[];" vertex="1" connectable="0" parent="-Pbv0AkEXwjADhWEen1N-59">
          <mxGeometry x="0.2669" relative="1" as="geometry">
            <mxPoint y="-13" as="offset" />
          </mxGeometry>
        </mxCell>
        <mxCell id="-Pbv0AkEXwjADhWEen1N-61" value="" style="edgeStyle=elbowEdgeStyle;elbow=vertical;align=left;verticalAlign=bottom;endArrow=open;endSize=8;endFill=1;rounded=0;exitX=0.5;exitY=1;exitDx=0;exitDy=0;entryX=0.5;entryY=0;entryDx=0;entryDy=0;" edge="1" parent="3" source="-Pbv0AkEXwjADhWEen1N-31" target="-Pbv0AkEXwjADhWEen1N-70">
          <mxGeometry x="-1" relative="1" as="geometry">
            <mxPoint x="301" y="620" as="targetPoint" />
            <Array as="points">
              <mxPoint x="298.58000000000004" y="570" />
            </Array>
            <mxPoint x="300.58000000000004" y="530" as="sourcePoint" />
          </mxGeometry>
        </mxCell>
        <mxCell id="-Pbv0AkEXwjADhWEen1N-62" value="&lt;div&gt;true&lt;/div&gt;" style="edgeLabel;html=1;align=center;verticalAlign=middle;resizable=0;points=[];" vertex="1" connectable="0" parent="-Pbv0AkEXwjADhWEen1N-61">
          <mxGeometry x="0.2669" relative="1" as="geometry">
            <mxPoint y="-13" as="offset" />
          </mxGeometry>
        </mxCell>
        <mxCell id="-Pbv0AkEXwjADhWEen1N-68" value="" style="edgeStyle=elbowEdgeStyle;elbow=vertical;align=left;verticalAlign=bottom;endArrow=open;endSize=8;endFill=1;rounded=0;exitX=0.5;exitY=1;exitDx=0;exitDy=0;entryX=0.5;entryY=0;entryDx=0;entryDy=0;" edge="1" parent="3" source="-Pbv0AkEXwjADhWEen1N-70" target="-Pbv0AkEXwjADhWEen1N-97">
          <mxGeometry x="-1" relative="1" as="geometry">
            <mxPoint x="300" y="750" as="targetPoint" />
            <Array as="points" />
            <mxPoint x="284" y="840" as="sourcePoint" />
          </mxGeometry>
        </mxCell>
        <mxCell id="-Pbv0AkEXwjADhWEen1N-69" value="&lt;div&gt;true&lt;/div&gt;" style="edgeLabel;html=1;align=center;verticalAlign=middle;resizable=0;points=[];" vertex="1" connectable="0" parent="-Pbv0AkEXwjADhWEen1N-68">
          <mxGeometry x="0.2669" relative="1" as="geometry">
            <mxPoint y="-13" as="offset" />
          </mxGeometry>
        </mxCell>
        <mxCell id="-Pbv0AkEXwjADhWEen1N-70" value="princess&#xa;underattack" style="rhombus;fontSize=9;" vertex="1" parent="3">
          <mxGeometry x="261" y="620" width="80" height="40" as="geometry" />
        </mxCell>
        <mxCell id="-Pbv0AkEXwjADhWEen1N-72" value="" style="edgeStyle=elbowEdgeStyle;elbow=horizontal;align=left;verticalAlign=bottom;endArrow=open;endSize=8;exitX=0;exitY=0.5;endFill=1;rounded=0;exitDx=0;exitDy=0;entryX=1;entryY=0.5;entryDx=0;entryDy=0;" edge="1" parent="3" source="-Pbv0AkEXwjADhWEen1N-70" target="-Pbv0AkEXwjADhWEen1N-80">
          <mxGeometry x="-1" relative="1" as="geometry">
            <mxPoint x="178" y="640" as="targetPoint" />
            <Array as="points">
              <mxPoint x="228" y="630" />
            </Array>
            <mxPoint x="198" y="481" as="sourcePoint" />
          </mxGeometry>
        </mxCell>
        <mxCell id="-Pbv0AkEXwjADhWEen1N-73" value="&lt;div&gt;false&lt;/div&gt;" style="edgeLabel;html=1;align=center;verticalAlign=middle;resizable=0;points=[];" vertex="1" connectable="0" parent="-Pbv0AkEXwjADhWEen1N-72">
          <mxGeometry x="0.2669" relative="1" as="geometry">
            <mxPoint x="3" as="offset" />
          </mxGeometry>
        </mxCell>
        <mxCell id="-Pbv0AkEXwjADhWEen1N-63" value="underattack" style="rhombus;fontSize=9;" vertex="1" parent="3">
          <mxGeometry x="261" y="380" width="80" height="40" as="geometry" />
        </mxCell>
        <mxCell id="-Pbv0AkEXwjADhWEen1N-64" value="&lt;div align=&quot;center&quot;&gt;&lt;span style=&quot;font-size: 6px;&quot;&gt;&lt;b&gt;attackEnemy&lt;/b&gt;&lt;/span&gt;&lt;/div&gt;" style="rounded=0;whiteSpace=wrap;html=1;align=center;" vertex="1" parent="3">
          <mxGeometry x="128" y="390" width="50" height="20" as="geometry" />
        </mxCell>
        <mxCell id="-Pbv0AkEXwjADhWEen1N-65" value="" style="edgeStyle=elbowEdgeStyle;elbow=horizontal;align=left;verticalAlign=bottom;endArrow=open;endSize=8;exitX=0;exitY=0.5;endFill=1;rounded=0;exitDx=0;exitDy=0;entryX=1;entryY=0.5;entryDx=0;entryDy=0;" edge="1" parent="3" source="-Pbv0AkEXwjADhWEen1N-63" target="-Pbv0AkEXwjADhWEen1N-64">
          <mxGeometry x="-1" relative="1" as="geometry">
            <mxPoint x="219" y="320" as="targetPoint" />
            <Array as="points">
              <mxPoint x="228" y="390" />
            </Array>
            <mxPoint x="198" y="241" as="sourcePoint" />
          </mxGeometry>
        </mxCell>
        <mxCell id="-Pbv0AkEXwjADhWEen1N-66" value="&lt;div&gt;true&lt;/div&gt;" style="edgeLabel;html=1;align=center;verticalAlign=middle;resizable=0;points=[];" vertex="1" connectable="0" parent="-Pbv0AkEXwjADhWEen1N-65">
          <mxGeometry x="0.2669" relative="1" as="geometry">
            <mxPoint x="3" as="offset" />
          </mxGeometry>
        </mxCell>
        <mxCell id="-Pbv0AkEXwjADhWEen1N-80" value="underattack" style="rhombus;fontSize=9;" vertex="1" parent="3">
          <mxGeometry x="100" y="620" width="80" height="40" as="geometry" />
        </mxCell>
        <mxCell id="-Pbv0AkEXwjADhWEen1N-81" value="&lt;div align=&quot;center&quot;&gt;&lt;span style=&quot;font-size: 6px;&quot;&gt;&lt;b&gt;attackEnemy&lt;/b&gt;&lt;/span&gt;&lt;/div&gt;" style="rounded=0;whiteSpace=wrap;html=1;align=center;" vertex="1" parent="3">
          <mxGeometry x="115" y="765" width="50" height="20" as="geometry" />
        </mxCell>
        <mxCell id="-Pbv0AkEXwjADhWEen1N-82" value="" style="edgeStyle=elbowEdgeStyle;elbow=horizontal;align=left;verticalAlign=bottom;endArrow=open;endSize=8;endFill=1;rounded=0;entryX=0.5;entryY=0;entryDx=0;entryDy=0;exitX=0.5;exitY=1;exitDx=0;exitDy=0;" edge="1" parent="3" target="-Pbv0AkEXwjADhWEen1N-81" source="-Pbv0AkEXwjADhWEen1N-80">
          <mxGeometry x="-1" relative="1" as="geometry">
            <mxPoint x="138" y="655" as="targetPoint" />
            <Array as="points">
              <mxPoint x="140" y="700" />
            </Array>
            <mxPoint x="140" y="660" as="sourcePoint" />
          </mxGeometry>
        </mxCell>
        <mxCell id="-Pbv0AkEXwjADhWEen1N-83" value="&lt;div&gt;true&lt;/div&gt;" style="edgeLabel;html=1;align=center;verticalAlign=middle;resizable=0;points=[];" vertex="1" connectable="0" parent="-Pbv0AkEXwjADhWEen1N-82">
          <mxGeometry x="0.2669" relative="1" as="geometry">
            <mxPoint x="3" as="offset" />
          </mxGeometry>
        </mxCell>
        <mxCell id="-Pbv0AkEXwjADhWEen1N-86" value="" style="edgeStyle=elbowEdgeStyle;elbow=horizontal;align=left;verticalAlign=bottom;endArrow=open;endSize=8;exitX=0.5;exitY=0;endFill=1;rounded=0;exitDx=0;exitDy=0;entryX=0;entryY=0.5;entryDx=0;entryDy=0;" edge="1" parent="3" source="-Pbv0AkEXwjADhWEen1N-80" target="-Pbv0AkEXwjADhWEen1N-31">
          <mxGeometry x="-1" relative="1" as="geometry">
            <mxPoint x="60" y="590" as="targetPoint" />
            <Array as="points">
              <mxPoint x="140" y="570" />
            </Array>
            <mxPoint x="141" y="590" as="sourcePoint" />
          </mxGeometry>
        </mxCell>
        <mxCell id="-Pbv0AkEXwjADhWEen1N-87" value="&lt;div&gt;false&lt;/div&gt;" style="edgeLabel;html=1;align=center;verticalAlign=middle;resizable=0;points=[];" vertex="1" connectable="0" parent="-Pbv0AkEXwjADhWEen1N-86">
          <mxGeometry x="0.2669" relative="1" as="geometry">
            <mxPoint x="3" as="offset" />
          </mxGeometry>
        </mxCell>
        <mxCell id="-Pbv0AkEXwjADhWEen1N-90" value="" style="edgeStyle=elbowEdgeStyle;elbow=horizontal;verticalAlign=bottom;endArrow=open;endSize=8;endFill=1;rounded=0;exitX=0.48;exitY=0.856;exitDx=0;exitDy=0;exitPerimeter=0;" edge="1" parent="3" source="_Sj6H3lR2v7R7_RWuAPX-70">
          <mxGeometry x="-755" y="-258" as="geometry">
            <mxPoint x="299" y="150" as="targetPoint" />
            <mxPoint x="298.66999999999996" y="87" as="sourcePoint" />
            <Array as="points">
              <mxPoint x="298.66999999999996" y="117" />
            </Array>
          </mxGeometry>
        </mxCell>
        <mxCell id="-Pbv0AkEXwjADhWEen1N-91" value="" style="edgeStyle=elbowEdgeStyle;elbow=horizontal;align=left;verticalAlign=bottom;endArrow=open;endSize=8;endFill=1;rounded=0;exitX=1;exitY=0.5;exitDx=0;exitDy=0;entryX=1;entryY=0.5;entryDx=0;entryDy=0;" edge="1" parent="3" source="-Pbv0AkEXwjADhWEen1N-44" target="-Pbv0AkEXwjADhWEen1N-27">
          <mxGeometry x="-1" relative="1" as="geometry">
            <mxPoint x="360" y="180" as="targetPoint" />
            <Array as="points">
              <mxPoint x="660" y="450" />
            </Array>
            <mxPoint x="589" y="620" as="sourcePoint" />
          </mxGeometry>
        </mxCell>
        <mxCell id="-Pbv0AkEXwjADhWEen1N-92" value="&lt;div&gt;true&lt;/div&gt;" style="edgeLabel;html=1;align=center;verticalAlign=middle;resizable=0;points=[];" vertex="1" connectable="0" parent="-Pbv0AkEXwjADhWEen1N-91">
          <mxGeometry x="0.2669" relative="1" as="geometry">
            <mxPoint y="414" as="offset" />
          </mxGeometry>
        </mxCell>
        <mxCell id="-Pbv0AkEXwjADhWEen1N-93" value="" style="edgeStyle=elbowEdgeStyle;elbow=vertical;align=left;verticalAlign=bottom;endArrow=open;endSize=8;endFill=1;rounded=0;exitX=0;exitY=0.5;exitDx=0;exitDy=0;entryX=1;entryY=0.5;entryDx=0;entryDy=0;" edge="1" parent="3" source="-Pbv0AkEXwjADhWEen1N-97" target="-Pbv0AkEXwjADhWEen1N-81">
          <mxGeometry x="-1" relative="1" as="geometry">
            <mxPoint x="180" y="775" as="targetPoint" />
            <Array as="points">
              <mxPoint x="210" y="775" />
            </Array>
            <mxPoint x="299.0000000000002" y="885" as="sourcePoint" />
          </mxGeometry>
        </mxCell>
        <mxCell id="-Pbv0AkEXwjADhWEen1N-94" value="&lt;div&gt;true&lt;/div&gt;" style="edgeLabel;html=1;align=center;verticalAlign=middle;resizable=0;points=[];" vertex="1" connectable="0" parent="-Pbv0AkEXwjADhWEen1N-93">
          <mxGeometry x="0.2669" relative="1" as="geometry">
            <mxPoint y="-13" as="offset" />
          </mxGeometry>
        </mxCell>
        <mxCell id="-Pbv0AkEXwjADhWEen1N-95" value="" style="edgeStyle=elbowEdgeStyle;elbow=horizontal;align=left;verticalAlign=bottom;endArrow=open;endSize=8;endFill=1;rounded=0;exitX=1;exitY=0.5;exitDx=0;exitDy=0;entryX=1;entryY=0.5;entryDx=0;entryDy=0;" edge="1" parent="3" source="-Pbv0AkEXwjADhWEen1N-98" target="-Pbv0AkEXwjADhWEen1N-70">
          <mxGeometry x="-1" relative="1" as="geometry">
            <mxPoint x="450" y="640" as="targetPoint" />
            <Array as="points">
              <mxPoint x="400" y="750" />
            </Array>
            <mxPoint x="341.0000000000002" y="880" as="sourcePoint" />
          </mxGeometry>
        </mxCell>
        <mxCell id="-Pbv0AkEXwjADhWEen1N-97" value="enemy reached" style="rhombus;fontSize=9;" vertex="1" parent="3">
          <mxGeometry x="261" y="755" width="80" height="40" as="geometry" />
        </mxCell>
        <mxCell id="-Pbv0AkEXwjADhWEen1N-98" value="step towards enemy" style="rounded=1;fontSize=11;" vertex="1" parent="3">
          <mxGeometry x="246" y="890" width="110" height="50" as="geometry" />
        </mxCell>
        <mxCell id="-Pbv0AkEXwjADhWEen1N-99" value="" style="edgeStyle=elbowEdgeStyle;elbow=vertical;align=left;verticalAlign=bottom;endArrow=open;endSize=8;endFill=1;rounded=0;exitX=0.5;exitY=1;exitDx=0;exitDy=0;entryX=0.5;entryY=0;entryDx=0;entryDy=0;" edge="1" parent="3" source="-Pbv0AkEXwjADhWEen1N-97" target="-Pbv0AkEXwjADhWEen1N-98">
          <mxGeometry x="-1" relative="1" as="geometry">
            <mxPoint x="300.23" y="890" as="targetPoint" />
            <Array as="points" />
            <mxPoint x="300.23" y="795" as="sourcePoint" />
          </mxGeometry>
        </mxCell>
        <mxCell id="-Pbv0AkEXwjADhWEen1N-100" value="&lt;div&gt;true&lt;/div&gt;" style="edgeLabel;html=1;align=center;verticalAlign=middle;resizable=0;points=[];" vertex="1" connectable="0" parent="-Pbv0AkEXwjADhWEen1N-99">
          <mxGeometry x="0.2669" relative="1" as="geometry">
            <mxPoint y="-13" as="offset" />
          </mxGeometry>
        </mxCell>
      </root>
    </mxGraphModel>
  </diagram>
</mxfile>
